<mxfile host="app.diagrams.net" agent="Mozilla/5.0 (Windows NT 10.0; Win64; x64) AppleWebKit/537.36 (KHTML, like Gecko) Chrome/132.0.0.0 Safari/537.36" version="26.0.10">
  <diagram name="Página-1" id="arWFqgf_pI_SIQcKwy6j">
    <mxGraphModel dx="1050" dy="565" grid="1" gridSize="10" guides="1" tooltips="1" connect="1" arrows="1" fold="1" page="1" pageScale="1" pageWidth="827" pageHeight="1169" math="0" shadow="0">
      <root>
        <mxCell id="0" />
        <mxCell id="1" parent="0" />
        <mxCell id="Q4jOZIirPNGRUeXsJqCv-1" value="inicio" style="rounded=1;whiteSpace=wrap;html=1;" vertex="1" parent="1">
          <mxGeometry x="340" y="40" width="120" height="60" as="geometry" />
        </mxCell>
        <mxCell id="Q4jOZIirPNGRUeXsJqCv-12" style="edgeStyle=orthogonalEdgeStyle;rounded=0;orthogonalLoop=1;jettySize=auto;html=1;entryX=0.5;entryY=0;entryDx=0;entryDy=0;" edge="1" parent="1" source="Q4jOZIirPNGRUeXsJqCv-2" target="Q4jOZIirPNGRUeXsJqCv-11">
          <mxGeometry relative="1" as="geometry" />
        </mxCell>
        <mxCell id="Q4jOZIirPNGRUeXsJqCv-2" value="n1, n2, n3" style="html=1;strokeWidth=2;shape=manualInput;whiteSpace=wrap;rounded=1;size=26;arcSize=11;" vertex="1" parent="1">
          <mxGeometry x="350" y="180" width="100" height="70" as="geometry" />
        </mxCell>
        <mxCell id="Q4jOZIirPNGRUeXsJqCv-5" style="edgeStyle=orthogonalEdgeStyle;rounded=0;orthogonalLoop=1;jettySize=auto;html=1;entryX=0.5;entryY=0.167;entryDx=0;entryDy=0;entryPerimeter=0;" edge="1" parent="1" source="Q4jOZIirPNGRUeXsJqCv-1" target="Q4jOZIirPNGRUeXsJqCv-2">
          <mxGeometry relative="1" as="geometry" />
        </mxCell>
        <mxCell id="Q4jOZIirPNGRUeXsJqCv-14" value="" style="edgeStyle=orthogonalEdgeStyle;rounded=0;orthogonalLoop=1;jettySize=auto;html=1;" edge="1" parent="1" source="Q4jOZIirPNGRUeXsJqCv-11" target="Q4jOZIirPNGRUeXsJqCv-13">
          <mxGeometry relative="1" as="geometry" />
        </mxCell>
        <mxCell id="Q4jOZIirPNGRUeXsJqCv-33" value="" style="edgeStyle=orthogonalEdgeStyle;rounded=0;orthogonalLoop=1;jettySize=auto;html=1;" edge="1" parent="1" source="Q4jOZIirPNGRUeXsJqCv-11" target="Q4jOZIirPNGRUeXsJqCv-32">
          <mxGeometry relative="1" as="geometry" />
        </mxCell>
        <mxCell id="Q4jOZIirPNGRUeXsJqCv-11" value="n1 &amp;gt;&amp;nbsp; n2&lt;div&gt;e&lt;/div&gt;&lt;div&gt;n1 &amp;gt; n3&lt;/div&gt;" style="rhombus;whiteSpace=wrap;html=1;" vertex="1" parent="1">
          <mxGeometry x="360" y="350" width="130" height="110" as="geometry" />
        </mxCell>
        <mxCell id="Q4jOZIirPNGRUeXsJqCv-46" style="edgeStyle=orthogonalEdgeStyle;rounded=0;orthogonalLoop=1;jettySize=auto;html=1;entryX=0;entryY=0.5;entryDx=0;entryDy=0;" edge="1" parent="1" source="Q4jOZIirPNGRUeXsJqCv-13" target="Q4jOZIirPNGRUeXsJqCv-42">
          <mxGeometry relative="1" as="geometry">
            <mxPoint x="220" y="890" as="targetPoint" />
            <Array as="points">
              <mxPoint x="220" y="820" />
              <mxPoint x="221" y="820" />
              <mxPoint x="221" y="920" />
            </Array>
          </mxGeometry>
        </mxCell>
        <mxCell id="Q4jOZIirPNGRUeXsJqCv-13" value="&quot;n1 é o maior&quot;" style="shape=document;whiteSpace=wrap;html=1;boundedLbl=1;" vertex="1" parent="1">
          <mxGeometry x="160" y="365" width="120" height="80" as="geometry" />
        </mxCell>
        <mxCell id="Q4jOZIirPNGRUeXsJqCv-35" value="" style="edgeStyle=orthogonalEdgeStyle;rounded=0;orthogonalLoop=1;jettySize=auto;html=1;" edge="1" parent="1" source="Q4jOZIirPNGRUeXsJqCv-32" target="Q4jOZIirPNGRUeXsJqCv-34">
          <mxGeometry relative="1" as="geometry" />
        </mxCell>
        <mxCell id="Q4jOZIirPNGRUeXsJqCv-37" value="" style="edgeStyle=orthogonalEdgeStyle;rounded=0;orthogonalLoop=1;jettySize=auto;html=1;" edge="1" parent="1" source="Q4jOZIirPNGRUeXsJqCv-32" target="Q4jOZIirPNGRUeXsJqCv-36">
          <mxGeometry relative="1" as="geometry" />
        </mxCell>
        <mxCell id="Q4jOZIirPNGRUeXsJqCv-32" value="n2 &amp;gt; n3&lt;div&gt;e&lt;/div&gt;&lt;div&gt;n2 &amp;gt; n1&lt;/div&gt;" style="rhombus;whiteSpace=wrap;html=1;" vertex="1" parent="1">
          <mxGeometry x="570" y="520" width="150" height="130" as="geometry" />
        </mxCell>
        <mxCell id="Q4jOZIirPNGRUeXsJqCv-44" style="edgeStyle=orthogonalEdgeStyle;rounded=0;orthogonalLoop=1;jettySize=auto;html=1;entryX=0;entryY=0.25;entryDx=0;entryDy=0;" edge="1" parent="1" source="Q4jOZIirPNGRUeXsJqCv-34" target="Q4jOZIirPNGRUeXsJqCv-42">
          <mxGeometry relative="1" as="geometry">
            <mxPoint x="430" y="913.2000122070312" as="targetPoint" />
            <Array as="points">
              <mxPoint x="415" y="905" />
            </Array>
          </mxGeometry>
        </mxCell>
        <mxCell id="Q4jOZIirPNGRUeXsJqCv-34" value="&quot;n2 é o maior&quot;" style="shape=document;whiteSpace=wrap;html=1;boundedLbl=1;" vertex="1" parent="1">
          <mxGeometry x="355" y="545" width="120" height="80" as="geometry" />
        </mxCell>
        <mxCell id="Q4jOZIirPNGRUeXsJqCv-39" value="" style="edgeStyle=orthogonalEdgeStyle;rounded=0;orthogonalLoop=1;jettySize=auto;html=1;" edge="1" parent="1" source="Q4jOZIirPNGRUeXsJqCv-36" target="Q4jOZIirPNGRUeXsJqCv-38">
          <mxGeometry relative="1" as="geometry" />
        </mxCell>
        <mxCell id="Q4jOZIirPNGRUeXsJqCv-36" value="n3 &amp;gt; n2&lt;div&gt;e&lt;/div&gt;&lt;div&gt;n3 &amp;gt; n1&lt;/div&gt;" style="rhombus;whiteSpace=wrap;html=1;" vertex="1" parent="1">
          <mxGeometry x="800" y="720" width="150" height="130" as="geometry" />
        </mxCell>
        <mxCell id="Q4jOZIirPNGRUeXsJqCv-43" style="edgeStyle=orthogonalEdgeStyle;rounded=0;orthogonalLoop=1;jettySize=auto;html=1;entryX=1;entryY=0.5;entryDx=0;entryDy=0;" edge="1" parent="1" source="Q4jOZIirPNGRUeXsJqCv-38" target="Q4jOZIirPNGRUeXsJqCv-42">
          <mxGeometry relative="1" as="geometry">
            <mxPoint x="590" y="931.5999755859375" as="targetPoint" />
            <Array as="points">
              <mxPoint x="645" y="920" />
            </Array>
          </mxGeometry>
        </mxCell>
        <mxCell id="Q4jOZIirPNGRUeXsJqCv-38" value="&quot;n3 é o maior&quot;" style="shape=document;whiteSpace=wrap;html=1;boundedLbl=1;" vertex="1" parent="1">
          <mxGeometry x="585" y="745" width="120" height="80" as="geometry" />
        </mxCell>
        <mxCell id="Q4jOZIirPNGRUeXsJqCv-42" value="fim" style="rounded=1;whiteSpace=wrap;html=1;" vertex="1" parent="1">
          <mxGeometry x="440" y="890" width="120" height="60" as="geometry" />
        </mxCell>
      </root>
    </mxGraphModel>
  </diagram>
</mxfile>
